<?xml version="1.0" encoding="utf-8"?>
<!-- Generated by IcoMoon.io -->
<!DOCTYPE svg PUBLIC "-//W3C//DTD SVG 1.1//EN" "http://www.w3.org/Graphics/SVG/1.1/DTD/svg11.dtd">
<svg version="1.1" xmlns="http://www.w3.org/2000/svg" xmlns:xlink="http://www.w3.org/1999/xlink" width="16" height="16" viewBox="0 0 16 16">
	<path d="M13.25 16h-10.5c-0.414 0-0.75-0.336-0.75-0.75 0-1.076 0.454-2.378 1.215-3.483 0.636-0.924 1.417-1.619 2.261-2.025-0.372-0.338-0.692-0.75-0.945-1.221-0.406-0.754-0.621-1.626-0.621-2.521 0-1.244 0.409-2.419 1.153-3.309 0.776-0.929 1.819-1.441 2.938-1.441s2.162 0.512 2.938 1.441c0.743 0.89 1.153 2.065 1.153 3.309 0 0.895-0.215 1.767-0.621 2.521-0.253 0.47-0.574 0.882-0.945 1.221 0.844 0.406 1.625 1.101 2.261 2.025 0.761 1.105 1.215 2.407 1.215 3.483 0 0.414-0.336 0.75-0.75 0.75zM3.595 14.5h8.81c-0.144-0.615-0.446-1.287-0.856-1.883-0.648-0.941-1.456-1.557-2.276-1.733-0.345-0.074-0.592-0.38-0.592-0.733v-0.536c0-0.27 0.145-0.519 0.379-0.652 0.929-0.529 1.53-1.692 1.53-2.963 0-1.792-1.162-3.25-2.591-3.25-1.429 0-2.591 1.458-2.591 3.25 0 1.271 0.601 2.434 1.53 2.963 0.234 0.133 0.379 0.382 0.379 0.652v0.536c0 0.353-0.247 0.659-0.592 0.733-0.82 0.177-1.628 0.792-2.276 1.733-0.41 0.596-0.712 1.268-0.856 1.883z" fill="#000000" />
</svg>
