<?xml version="1.0" encoding="utf-8"?>
<!-- Generated by IcoMoon.io -->
<!DOCTYPE svg PUBLIC "-//W3C//DTD SVG 1.1//EN" "http://www.w3.org/Graphics/SVG/1.1/DTD/svg11.dtd">
<svg version="1.1" xmlns="http://www.w3.org/2000/svg" xmlns:xlink="http://www.w3.org/1999/xlink" width="464" height="16" viewBox="0 0 464 16">
<g transform="translate(0 0)">
	<path d="M9.732 10.98c-0.345-0.055-0.353-1.005-0.353-1.005s1.015-1.005 1.236-2.356c0.595 0 0.963-1.437 0.368-1.942 0.025-0.532 0.765-4.177-2.982-4.177-3.747 0-3.007 3.645-2.982 4.177-0.595 0.505-0.228 1.942 0.368 1.942 0.221 1.351 1.236 2.356 1.236 2.356s-0.008 0.95-0.353 1.005c-1.113 0.177-5.268 2.010-5.268 4.020h14c0-2.010-4.155-3.843-5.268-4.020z" fill="#000000" />
</g>
<g transform="translate(32 0)">
	<path d="M11.484 12.584c-0.296-0.047-0.303-0.854-0.303-0.854s0.87-0.854 1.060-2.002c0.51 0 0.825-1.221 0.315-1.65 0.021-0.452 0.656-3.55-2.556-3.55-3.212 0-2.577 3.097-2.556 3.55-0.51 0.43-0.195 1.65 0.315 1.65 0.19 1.148 1.060 2.002 1.060 2.002s-0.007 0.807-0.303 0.854c-0.954 0.15-4.516 1.708-4.516 3.416h12c0-1.708-3.562-3.266-4.516-3.416zM5.376 12.856c0.689-0.424 1.525-0.817 2.212-1.053-0.246-0.351-0.52-0.827-0.693-1.392-0.241-0.196-0.437-0.477-0.562-0.822-0.126-0.345-0.174-0.732-0.135-1.089 0.028-0.256 0.101-0.495 0.213-0.705-0.068-0.728-0.116-2.157 0.819-3.199 0.363-0.404 0.821-0.695 1.37-0.87-0.098-1.012-0.612-2.2-2.601-2.2-3.212 0-2.577 3.097-2.556 3.55-0.51 0.43-0.195 1.65 0.315 1.65 0.19 1.148 1.060 2.002 1.060 2.002s-0.007 0.807-0.303 0.854c-0.954 0.151-4.516 1.708-4.516 3.416h5.15c0.074-0.048 0.149-0.096 0.226-0.144z" fill="#000000" />
</g>
<g transform="translate(64 0)">
	<path d="M8 1l-8 8 1.5 1.5 1.5-1.5 1 6h3v-3h2v3h3l1-6 1.5 1.5 1.5-1.5-8-8zM8 7.414c-0.781 0-1.414-0.633-1.414-1.414s0.633-1.414 1.414-1.414c0.781 0 1.414 0.633 1.414 1.414 0 0.781-0.633 1.414-1.414 1.414z" fill="#000000" />
</g>
<g transform="translate(96 0)">
	<path d="M0 16h8v-16h-8v16zM5 2h2v2h-2v-2zM5 6h2v2h-2v-2zM5 10h2v2h-2v-2zM1 2h2v2h-2v-2zM1 6h2v2h-2v-2zM1 10h2v2h-2v-2zM9 5h7v1h-7zM9 16h2v-4h3v4h2v-9h-7z" fill="#000000" />
</g>
<g transform="translate(128 0)">
	<path d="M4 5c0-2.209 1.791-4 4-4s4 1.791 4 4c0 2.209-1.791 4-4 4-2.209 0-4-1.791-4-4zM12 10h-8c-2.209 0-4 1.791-4 4v1h16v-1c0-2.209-1.791-4-4-4z" fill="#000000" />
</g>
<g transform="translate(160 0)">
	<path d="M15.25 16h-10.5c-0.414 0-0.75-0.336-0.75-0.75 0-1.076 0.454-2.378 1.215-3.483 0.636-0.924 1.417-1.619 2.261-2.025-0.372-0.338-0.692-0.75-0.945-1.221-0.406-0.754-0.621-1.626-0.621-2.521 0-1.244 0.409-2.419 1.153-3.309 0.776-0.929 1.819-1.441 2.938-1.441s2.162 0.512 2.938 1.441c0.743 0.89 1.153 2.065 1.153 3.309 0 0.895-0.215 1.767-0.621 2.521-0.253 0.47-0.574 0.882-0.945 1.221 0.844 0.406 1.625 1.101 2.261 2.025 0.761 1.105 1.215 2.407 1.215 3.483 0 0.414-0.336 0.75-0.75 0.75zM5.595 14.5h8.81c-0.144-0.615-0.446-1.287-0.856-1.883-0.648-0.941-1.456-1.557-2.276-1.733-0.345-0.074-0.592-0.38-0.592-0.733v-0.536c0-0.27 0.145-0.519 0.379-0.652 0.929-0.529 1.53-1.692 1.53-2.963 0-1.792-1.162-3.25-2.591-3.25s-2.591 1.458-2.591 3.25c0 1.271 0.601 2.434 1.53 2.963 0.234 0.133 0.379 0.382 0.379 0.652v0.536c0 0.353-0.247 0.659-0.592 0.733-0.82 0.177-1.628 0.792-2.276 1.733-0.41 0.596-0.712 1.268-0.856 1.883zM3.080 13.5h-1.485c0.144-0.615 0.446-1.287 0.856-1.883 0.648-0.941 1.456-1.557 2.276-1.733 0.345-0.074 0.592-0.38 0.592-0.733v-0.536c0-0.27-0.145-0.519-0.379-0.652-0.929-0.529-1.53-1.692-1.53-2.963 0-1.792 1.162-3.25 2.591-3.25 0.098 0 0.194 0.007 0.289 0.020 0.412-0.458 0.879-0.831 1.385-1.109-0.519-0.269-1.086-0.411-1.674-0.411-1.119 0-2.162 0.512-2.938 1.441-0.743 0.89-1.153 2.065-1.153 3.309 0 0.895 0.215 1.767 0.621 2.521 0.253 0.47 0.574 0.882 0.945 1.221-0.844 0.406-1.625 1.101-2.261 2.025-0.761 1.105-1.215 2.407-1.215 3.483 0 0.414 0.336 0.75 0.75 0.75h2.069c0.023-0.485 0.112-0.991 0.261-1.5z" fill="#000000" />
</g>
<g transform="translate(192 0)">
	<path d="M13.25 16h-10.5c-0.414 0-0.75-0.336-0.75-0.75 0-1.076 0.454-2.378 1.215-3.483 0.636-0.924 1.417-1.619 2.261-2.025-0.372-0.338-0.692-0.75-0.945-1.221-0.406-0.754-0.621-1.626-0.621-2.521 0-1.244 0.409-2.419 1.153-3.309 0.776-0.929 1.819-1.441 2.938-1.441s2.162 0.512 2.938 1.441c0.743 0.89 1.153 2.065 1.153 3.309 0 0.895-0.215 1.767-0.621 2.521-0.253 0.47-0.574 0.882-0.945 1.221 0.844 0.406 1.625 1.101 2.261 2.025 0.761 1.105 1.215 2.407 1.215 3.483 0 0.414-0.336 0.75-0.75 0.75zM3.595 14.5h8.81c-0.144-0.615-0.446-1.287-0.856-1.883-0.648-0.941-1.456-1.557-2.276-1.733-0.345-0.074-0.592-0.38-0.592-0.733v-0.536c0-0.27 0.145-0.519 0.379-0.652 0.929-0.529 1.53-1.692 1.53-2.963 0-1.792-1.162-3.25-2.591-3.25-1.429 0-2.591 1.458-2.591 3.25 0 1.271 0.601 2.434 1.53 2.963 0.234 0.133 0.379 0.382 0.379 0.652v0.536c0 0.353-0.247 0.659-0.592 0.733-0.82 0.177-1.628 0.792-2.276 1.733-0.41 0.596-0.712 1.268-0.856 1.883z" fill="#000000" />
</g>
<g transform="translate(224 0)">
	<path d="M5 3c0-1.657 1.343-3 3-3s3 1.343 3 3c0 1.657-1.343 3-3 3-1.657 0-3-1.343-3-3zM12.001 7h-0.553l-3.111 6.316 1.163-5.816-1.5-1.5-1.5 1.5 1.163 5.816-3.111-6.316h-0.554c-1.999 0-1.999 1.344-1.999 3v5h12v-5c0-1.656 0-3-1.999-3z" fill="#000000" />
</g>
<g transform="translate(256 0)">
	<path d="M0 1v14h16v-14h-16zM6 10v-3h4v3h-4zM10 11v3h-4v-3h4zM10 3v3h-4v-3h4zM5 3v3h-4v-3h4zM1 7h4v3h-4v-3zM11 7h4v3h-4v-3zM11 6v-3h4v3h-4zM1 11h4v3h-4v-3zM11 14v-3h4v3h-4z" fill="#000000" />
</g>
<g transform="translate(288 0)">
	<path d="M0 3v11h16v-11h-16zM6 10v-2h4v2h-4zM10 11v2h-4v-2h4zM10 5v2h-4v-2h4zM5 5v2h-4v-2h4zM1 8h4v2h-4v-2zM11 8h4v2h-4v-2zM11 7v-2h4v2h-4zM1 11h4v2h-4v-2zM11 13v-2h4v2h-4z" fill="#000000" />
</g>
<g transform="translate(320 0)">
	<path d="M4.5 6h-3c-0.275 0-0.5 0.225-0.5 0.5v9c0 0.275 0.225 0.5 0.5 0.5h3c0.275 0 0.5-0.225 0.5-0.5v-9c0-0.275-0.225-0.5-0.5-0.5zM4.5 15h-3v-4h3v4zM9.5 4h-3c-0.275 0-0.5 0.225-0.5 0.5v11c0 0.275 0.225 0.5 0.5 0.5h3c0.275 0 0.5-0.225 0.5-0.5v-11c0-0.275-0.225-0.5-0.5-0.5zM9.5 15h-3v-5h3v5zM14.5 2h-3c-0.275 0-0.5 0.225-0.5 0.5v13c0 0.275 0.225 0.5 0.5 0.5h3c0.275 0 0.5-0.225 0.5-0.5v-13c0-0.275-0.225-0.5-0.5-0.5zM14.5 15h-3v-6h3v6z" fill="#000000" />
</g>
<g transform="translate(352 0)">
	<path d="M2 14h14v2h-16v-16h2zM4.5 13c-0.828 0-1.5-0.672-1.5-1.5s0.672-1.5 1.5-1.5c0.044 0 0.088 0.002 0.131 0.006l1.612-2.687c-0.154-0.235-0.243-0.517-0.243-0.819 0-0.828 0.672-1.5 1.5-1.5 0.828 0 1.5 0.672 1.5 1.5 0 0.302-0.090 0.583-0.243 0.819l1.612 2.687c0.043-0.004 0.087-0.006 0.131-0.006 0.033 0 0.066 0.001 0.099 0.004l2.662-4.658c-0.165-0.241-0.261-0.532-0.261-0.845 0-0.828 0.672-1.5 1.5-1.5 0.828 0 1.5 0.672 1.5 1.5 0 0.828-0.672 1.5-1.5 1.5-0.033 0-0.066-0.001-0.099-0.004l-2.662 4.658c0.165 0.241 0.261 0.532 0.261 0.845 0 0.828-0.672 1.5-1.5 1.5-0.828 0-1.5-0.672-1.5-1.5 0-0.302 0.090-0.583 0.243-0.819l-1.612-2.687c-0.043 0.004-0.087 0.006-0.131 0.006s-0.088-0.002-0.131-0.006l-1.612 2.687c0.154 0.235 0.243 0.517 0.243 0.819 0 0.828-0.672 1.5-1.5 1.5z" fill="#000000" />
</g>
<g transform="translate(384 0)">
	<path d="M0 13h16v2h-16zM2 9h2v3h-2zM5 5h2v7h-2zM8 8h2v4h-2zM11 2h2v10h-2z" fill="#000000" />
</g>
<g transform="translate(416 0)">
	<path d="M15.671 12.779l-7.196-6.168c0.335-0.63 0.525-1.348 0.525-2.111 0-2.485-2.015-4.5-4.5-4.5-0.455 0-0.893 0.068-1.307 0.193l2.6 2.6c0.389 0.389 0.389 1.025 0 1.414l-1.586 1.586c-0.389 0.389-1.025 0.389-1.414 0l-2.6-2.6c-0.125 0.414-0.193 0.852-0.193 1.307 0 2.485 2.015 4.5 4.5 4.5 0.763 0 1.482-0.19 2.111-0.525l6.168 7.196c0.358 0.418 0.969 0.441 1.358 0.052l1.586-1.586c0.389-0.389 0.365-1-0.052-1.358z" fill="#000000" />
</g>
<g transform="translate(448 0)">
	<path d="M15.25 12h-0.25v-3.25c0-0.965-0.785-1.75-1.75-1.75h-4.25v-2h0.25c0.412 0 0.75-0.338 0.75-0.75v-2.5c0-0.413-0.338-0.75-0.75-0.75h-2.5c-0.412 0-0.75 0.337-0.75 0.75v2.5c0 0.412 0.338 0.75 0.75 0.75h0.25v2h-4.25c-0.965 0-1.75 0.785-1.75 1.75v3.25h-0.25c-0.412 0-0.75 0.338-0.75 0.75v2.5c0 0.412 0.338 0.75 0.75 0.75h2.5c0.413 0 0.75-0.338 0.75-0.75v-2.5c0-0.412-0.337-0.75-0.75-0.75h-0.25v-3h4v3h-0.25c-0.412 0-0.75 0.338-0.75 0.75v2.5c0 0.412 0.338 0.75 0.75 0.75h2.5c0.412 0 0.75-0.338 0.75-0.75v-2.5c0-0.412-0.338-0.75-0.75-0.75h-0.25v-3h4v3h-0.25c-0.412 0-0.75 0.338-0.75 0.75v2.5c0 0.412 0.338 0.75 0.75 0.75h2.5c0.412 0 0.75-0.338 0.75-0.75v-2.5c0-0.412-0.338-0.75-0.75-0.75zM3 15h-2v-2h2v2zM9 15h-2v-2h2v2zM7 4v-2h2v2h-2zM15 15h-2v-2h2v2z" fill="#000000" />
</g>
</svg>
